<mxfile host="app.diagrams.net" modified="2024-01-10T14:49:31.548Z" agent="Mozilla/5.0 (Windows NT 10.0; Win64; x64) AppleWebKit/537.36 (KHTML, like Gecko) Chrome/120.0.0.0 Safari/537.36" etag="d_MQVA_iy4W-izsQ8bbw" version="22.1.17" type="device">
  <diagram name="PÃ¡gina-1" id="YL4QJ6QcoBSTp3nyWlcG">
    <mxGraphModel dx="909" dy="1252" grid="1" gridSize="10" guides="1" tooltips="1" connect="1" arrows="1" fold="1" page="1" pageScale="1" pageWidth="1169" pageHeight="827" math="0" shadow="0">
      <root>
        <mxCell id="0" />
        <mxCell id="1" parent="0" />
        <mxCell id="hWTCqJScmFLol3pXhUUd-16" value="pad_escribano (pgsql)" style="swimlane;fontStyle=0;childLayout=stackLayout;horizontal=1;startSize=26;horizontalStack=0;resizeParent=1;resizeParentMax=0;resizeLast=0;collapsible=1;marginBottom=0;align=center;fontSize=14;" vertex="1" parent="1">
          <mxGeometry x="560" y="-570" width="280" height="566" as="geometry" />
        </mxCell>
        <mxCell id="hWTCqJScmFLol3pXhUUd-17" value="id: bigserial" style="text;strokeColor=none;fillColor=none;spacingLeft=4;spacingRight=4;overflow=hidden;rotatable=0;points=[[0,0.5],[1,0.5]];portConstraint=eastwest;fontSize=12;whiteSpace=wrap;html=1;" vertex="1" parent="hWTCqJScmFLol3pXhUUd-16">
          <mxGeometry y="26" width="280" height="30" as="geometry" />
        </mxCell>
        <mxCell id="hWTCqJScmFLol3pXhUUd-18" value="creationtimestamp: timestamp" style="text;strokeColor=none;fillColor=none;spacingLeft=4;spacingRight=4;overflow=hidden;rotatable=0;points=[[0,0.5],[1,0.5]];portConstraint=eastwest;fontSize=12;whiteSpace=wrap;html=1;" vertex="1" parent="hWTCqJScmFLol3pXhUUd-16">
          <mxGeometry y="56" width="280" height="30" as="geometry" />
        </mxCell>
        <mxCell id="hWTCqJScmFLol3pXhUUd-20" value="creationuser: varchar" style="text;strokeColor=none;fillColor=none;spacingLeft=4;spacingRight=4;overflow=hidden;rotatable=0;points=[[0,0.5],[1,0.5]];portConstraint=eastwest;fontSize=12;whiteSpace=wrap;html=1;" vertex="1" parent="hWTCqJScmFLol3pXhUUd-16">
          <mxGeometry y="86" width="280" height="30" as="geometry" />
        </mxCell>
        <mxCell id="hWTCqJScmFLol3pXhUUd-21" value="deleted: bool" style="text;strokeColor=none;fillColor=none;spacingLeft=4;spacingRight=4;overflow=hidden;rotatable=0;points=[[0,0.5],[1,0.5]];portConstraint=eastwest;fontSize=12;whiteSpace=wrap;html=1;" vertex="1" parent="hWTCqJScmFLol3pXhUUd-16">
          <mxGeometry y="116" width="280" height="30" as="geometry" />
        </mxCell>
        <mxCell id="hWTCqJScmFLol3pXhUUd-22" value="modificationtimestamp: timestamp" style="text;strokeColor=none;fillColor=none;spacingLeft=4;spacingRight=4;overflow=hidden;rotatable=0;points=[[0,0.5],[1,0.5]];portConstraint=eastwest;fontSize=12;whiteSpace=wrap;html=1;" vertex="1" parent="hWTCqJScmFLol3pXhUUd-16">
          <mxGeometry y="146" width="280" height="30" as="geometry" />
        </mxCell>
        <mxCell id="hWTCqJScmFLol3pXhUUd-23" value="modificationuser: varchar" style="text;strokeColor=none;fillColor=none;spacingLeft=4;spacingRight=4;overflow=hidden;rotatable=0;points=[[0,0.5],[1,0.5]];portConstraint=eastwest;fontSize=12;whiteSpace=wrap;html=1;" vertex="1" parent="hWTCqJScmFLol3pXhUUd-16">
          <mxGeometry y="176" width="280" height="30" as="geometry" />
        </mxCell>
        <mxCell id="hWTCqJScmFLol3pXhUUd-24" value="versionnumber: int8" style="text;strokeColor=none;fillColor=none;spacingLeft=4;spacingRight=4;overflow=hidden;rotatable=0;points=[[0,0.5],[1,0.5]];portConstraint=eastwest;fontSize=12;whiteSpace=wrap;html=1;" vertex="1" parent="hWTCqJScmFLol3pXhUUd-16">
          <mxGeometry y="206" width="280" height="30" as="geometry" />
        </mxCell>
        <mxCell id="hWTCqJScmFLol3pXhUUd-25" value="matricula: varchar" style="text;strokeColor=none;fillColor=none;spacingLeft=4;spacingRight=4;overflow=hidden;rotatable=0;points=[[0,0.5],[1,0.5]];portConstraint=eastwest;fontSize=12;whiteSpace=wrap;html=1;" vertex="1" parent="hWTCqJScmFLol3pXhUUd-16">
          <mxGeometry y="236" width="280" height="30" as="geometry" />
        </mxCell>
        <mxCell id="hWTCqJScmFLol3pXhUUd-26" value="credencial: int8" style="text;strokeColor=none;fillColor=none;spacingLeft=4;spacingRight=4;overflow=hidden;rotatable=0;points=[[0,0.5],[1,0.5]];portConstraint=eastwest;fontSize=12;whiteSpace=wrap;html=1;" vertex="1" parent="hWTCqJScmFLol3pXhUUd-16">
          <mxGeometry y="266" width="280" height="30" as="geometry" />
        </mxCell>
        <mxCell id="hWTCqJScmFLol3pXhUUd-27" value="fechacredencial: date" style="text;strokeColor=none;fillColor=none;spacingLeft=4;spacingRight=4;overflow=hidden;rotatable=0;points=[[0,0.5],[1,0.5]];portConstraint=eastwest;fontSize=12;whiteSpace=wrap;html=1;" vertex="1" parent="hWTCqJScmFLol3pXhUUd-16">
          <mxGeometry y="296" width="280" height="30" as="geometry" />
        </mxCell>
        <mxCell id="hWTCqJScmFLol3pXhUUd-28" value="idtituloprofesional: int8" style="text;strokeColor=none;fillColor=none;spacingLeft=4;spacingRight=4;overflow=hidden;rotatable=0;points=[[0,0.5],[1,0.5]];portConstraint=eastwest;fontSize=12;whiteSpace=wrap;html=1;" vertex="1" parent="hWTCqJScmFLol3pXhUUd-16">
          <mxGeometry y="326" width="280" height="30" as="geometry" />
        </mxCell>
        <mxCell id="hWTCqJScmFLol3pXhUUd-29" value="fechatituloprofesional: date" style="text;strokeColor=none;fillColor=none;spacingLeft=4;spacingRight=4;overflow=hidden;rotatable=0;points=[[0,0.5],[1,0.5]];portConstraint=eastwest;fontSize=12;whiteSpace=wrap;html=1;" vertex="1" parent="hWTCqJScmFLol3pXhUUd-16">
          <mxGeometry y="356" width="280" height="30" as="geometry" />
        </mxCell>
        <mxCell id="hWTCqJScmFLol3pXhUUd-30" value="tituloexpedidopor: varchar" style="text;strokeColor=none;fillColor=none;spacingLeft=4;spacingRight=4;overflow=hidden;rotatable=0;points=[[0,0.5],[1,0.5]];portConstraint=eastwest;fontSize=12;whiteSpace=wrap;html=1;" vertex="1" parent="hWTCqJScmFLol3pXhUUd-16">
          <mxGeometry y="386" width="280" height="30" as="geometry" />
        </mxCell>
        <mxCell id="hWTCqJScmFLol3pXhUUd-31" value="fechamatricula: date" style="text;strokeColor=none;fillColor=none;spacingLeft=4;spacingRight=4;overflow=hidden;rotatable=0;points=[[0,0.5],[1,0.5]];portConstraint=eastwest;fontSize=12;whiteSpace=wrap;html=1;" vertex="1" parent="hWTCqJScmFLol3pXhUUd-16">
          <mxGeometry y="416" width="280" height="30" as="geometry" />
        </mxCell>
        <mxCell id="hWTCqJScmFLol3pXhUUd-32" value="casillerorgr: int8" style="text;strokeColor=none;fillColor=none;spacingLeft=4;spacingRight=4;overflow=hidden;rotatable=0;points=[[0,0.5],[1,0.5]];portConstraint=eastwest;fontSize=12;whiteSpace=wrap;html=1;" vertex="1" parent="hWTCqJScmFLol3pXhUUd-16">
          <mxGeometry y="446" width="280" height="30" as="geometry" />
        </mxCell>
        <mxCell id="hWTCqJScmFLol3pXhUUd-33" value="agenteretencionsellos: varchar" style="text;strokeColor=none;fillColor=none;spacingLeft=4;spacingRight=4;overflow=hidden;rotatable=0;points=[[0,0.5],[1,0.5]];portConstraint=eastwest;fontSize=12;whiteSpace=wrap;html=1;" vertex="1" parent="hWTCqJScmFLol3pXhUUd-16">
          <mxGeometry y="476" width="280" height="30" as="geometry" />
        </mxCell>
        <mxCell id="hWTCqJScmFLol3pXhUUd-34" value="observacion1: varchar" style="text;strokeColor=none;fillColor=none;spacingLeft=4;spacingRight=4;overflow=hidden;rotatable=0;points=[[0,0.5],[1,0.5]];portConstraint=eastwest;fontSize=12;whiteSpace=wrap;html=1;" vertex="1" parent="hWTCqJScmFLol3pXhUUd-16">
          <mxGeometry y="506" width="280" height="30" as="geometry" />
        </mxCell>
        <mxCell id="hWTCqJScmFLol3pXhUUd-35" value="observacion2: varchar" style="text;strokeColor=none;fillColor=none;spacingLeft=4;spacingRight=4;overflow=hidden;rotatable=0;points=[[0,0.5],[1,0.5]];portConstraint=eastwest;fontSize=12;whiteSpace=wrap;html=1;" vertex="1" parent="hWTCqJScmFLol3pXhUUd-16">
          <mxGeometry y="536" width="280" height="30" as="geometry" />
        </mxCell>
        <mxCell id="hWTCqJScmFLol3pXhUUd-36" value="sec_padron_escribanos (mysql)" style="swimlane;fontStyle=0;childLayout=stackLayout;horizontal=1;startSize=30;horizontalStack=0;resizeParent=1;resizeParentMax=0;resizeLast=0;collapsible=1;marginBottom=0;whiteSpace=wrap;html=1;" vertex="1" parent="1">
          <mxGeometry x="90" y="-460" width="210" height="1020" as="geometry" />
        </mxCell>
        <mxCell id="hWTCqJScmFLol3pXhUUd-37" value="matricula: int" style="text;strokeColor=none;fillColor=none;align=left;verticalAlign=middle;spacingLeft=4;spacingRight=4;overflow=hidden;points=[[0,0.5],[1,0.5]];portConstraint=eastwest;rotatable=0;whiteSpace=wrap;html=1;" vertex="1" parent="hWTCqJScmFLol3pXhUUd-36">
          <mxGeometry y="30" width="210" height="30" as="geometry" />
        </mxCell>
        <mxCell id="hWTCqJScmFLol3pXhUUd-38" value="apellido1: varchar" style="text;strokeColor=none;fillColor=none;align=left;verticalAlign=middle;spacingLeft=4;spacingRight=4;overflow=hidden;points=[[0,0.5],[1,0.5]];portConstraint=eastwest;rotatable=0;whiteSpace=wrap;html=1;" vertex="1" parent="hWTCqJScmFLol3pXhUUd-36">
          <mxGeometry y="60" width="210" height="30" as="geometry" />
        </mxCell>
        <mxCell id="hWTCqJScmFLol3pXhUUd-39" value="apellido2: varchar" style="text;strokeColor=none;fillColor=none;align=left;verticalAlign=middle;spacingLeft=4;spacingRight=4;overflow=hidden;points=[[0,0.5],[1,0.5]];portConstraint=eastwest;rotatable=0;whiteSpace=wrap;html=1;" vertex="1" parent="hWTCqJScmFLol3pXhUUd-36">
          <mxGeometry y="90" width="210" height="30" as="geometry" />
        </mxCell>
        <mxCell id="hWTCqJScmFLol3pXhUUd-40" value="nombre1: varchar" style="text;strokeColor=none;fillColor=none;align=left;verticalAlign=middle;spacingLeft=4;spacingRight=4;overflow=hidden;points=[[0,0.5],[1,0.5]];portConstraint=eastwest;rotatable=0;whiteSpace=wrap;html=1;" vertex="1" parent="hWTCqJScmFLol3pXhUUd-36">
          <mxGeometry y="120" width="210" height="30" as="geometry" />
        </mxCell>
        <mxCell id="hWTCqJScmFLol3pXhUUd-41" value="nombre2: varchar" style="text;strokeColor=none;fillColor=none;align=left;verticalAlign=middle;spacingLeft=4;spacingRight=4;overflow=hidden;points=[[0,0.5],[1,0.5]];portConstraint=eastwest;rotatable=0;whiteSpace=wrap;html=1;" vertex="1" parent="hWTCqJScmFLol3pXhUUd-36">
          <mxGeometry y="150" width="210" height="30" as="geometry" />
        </mxCell>
        <mxCell id="hWTCqJScmFLol3pXhUUd-42" value="nombre3: varchar" style="text;strokeColor=none;fillColor=none;align=left;verticalAlign=middle;spacingLeft=4;spacingRight=4;overflow=hidden;points=[[0,0.5],[1,0.5]];portConstraint=eastwest;rotatable=0;whiteSpace=wrap;html=1;" vertex="1" parent="hWTCqJScmFLol3pXhUUd-36">
          <mxGeometry y="180" width="210" height="30" as="geometry" />
        </mxCell>
        <mxCell id="hWTCqJScmFLol3pXhUUd-43" value="sexo: varchar" style="text;strokeColor=none;fillColor=none;align=left;verticalAlign=middle;spacingLeft=4;spacingRight=4;overflow=hidden;points=[[0,0.5],[1,0.5]];portConstraint=eastwest;rotatable=0;whiteSpace=wrap;html=1;" vertex="1" parent="hWTCqJScmFLol3pXhUUd-36">
          <mxGeometry y="210" width="210" height="30" as="geometry" />
        </mxCell>
        <mxCell id="hWTCqJScmFLol3pXhUUd-44" value="apellido_de_casada: varchar" style="text;strokeColor=none;fillColor=none;align=left;verticalAlign=middle;spacingLeft=4;spacingRight=4;overflow=hidden;points=[[0,0.5],[1,0.5]];portConstraint=eastwest;rotatable=0;whiteSpace=wrap;html=1;" vertex="1" parent="hWTCqJScmFLol3pXhUUd-36">
          <mxGeometry y="240" width="210" height="30" as="geometry" />
        </mxCell>
        <mxCell id="hWTCqJScmFLol3pXhUUd-45" value="cod_titulo: int" style="text;strokeColor=none;fillColor=none;align=left;verticalAlign=middle;spacingLeft=4;spacingRight=4;overflow=hidden;points=[[0,0.5],[1,0.5]];portConstraint=eastwest;rotatable=0;whiteSpace=wrap;html=1;" vertex="1" parent="hWTCqJScmFLol3pXhUUd-36">
          <mxGeometry y="270" width="210" height="30" as="geometry" />
        </mxCell>
        <mxCell id="hWTCqJScmFLol3pXhUUd-46" value="fecha_titulo: date" style="text;strokeColor=none;fillColor=none;align=left;verticalAlign=middle;spacingLeft=4;spacingRight=4;overflow=hidden;points=[[0,0.5],[1,0.5]];portConstraint=eastwest;rotatable=0;whiteSpace=wrap;html=1;" vertex="1" parent="hWTCqJScmFLol3pXhUUd-36">
          <mxGeometry y="300" width="210" height="30" as="geometry" />
        </mxCell>
        <mxCell id="hWTCqJScmFLol3pXhUUd-47" value="expedido: varchar" style="text;strokeColor=none;fillColor=none;align=left;verticalAlign=middle;spacingLeft=4;spacingRight=4;overflow=hidden;points=[[0,0.5],[1,0.5]];portConstraint=eastwest;rotatable=0;whiteSpace=wrap;html=1;" vertex="1" parent="hWTCqJScmFLol3pXhUUd-36">
          <mxGeometry y="330" width="210" height="30" as="geometry" />
        </mxCell>
        <mxCell id="hWTCqJScmFLol3pXhUUd-48" value="fecha_matricula: date" style="text;strokeColor=none;fillColor=none;align=left;verticalAlign=middle;spacingLeft=4;spacingRight=4;overflow=hidden;points=[[0,0.5],[1,0.5]];portConstraint=eastwest;rotatable=0;whiteSpace=wrap;html=1;" vertex="1" parent="hWTCqJScmFLol3pXhUUd-36">
          <mxGeometry y="360" width="210" height="30" as="geometry" />
        </mxCell>
        <mxCell id="hWTCqJScmFLol3pXhUUd-49" value="nacido_en: varchar" style="text;strokeColor=none;fillColor=none;align=left;verticalAlign=middle;spacingLeft=4;spacingRight=4;overflow=hidden;points=[[0,0.5],[1,0.5]];portConstraint=eastwest;rotatable=0;whiteSpace=wrap;html=1;" vertex="1" parent="hWTCqJScmFLol3pXhUUd-36">
          <mxGeometry y="390" width="210" height="30" as="geometry" />
        </mxCell>
        <mxCell id="hWTCqJScmFLol3pXhUUd-50" value="fecha_nacimiento: date" style="text;strokeColor=none;fillColor=none;align=left;verticalAlign=middle;spacingLeft=4;spacingRight=4;overflow=hidden;points=[[0,0.5],[1,0.5]];portConstraint=eastwest;rotatable=0;whiteSpace=wrap;html=1;" vertex="1" parent="hWTCqJScmFLol3pXhUUd-36">
          <mxGeometry y="420" width="210" height="30" as="geometry" />
        </mxCell>
        <mxCell id="hWTCqJScmFLol3pXhUUd-51" value="cod_tipo_doc: int" style="text;strokeColor=none;fillColor=none;align=left;verticalAlign=middle;spacingLeft=4;spacingRight=4;overflow=hidden;points=[[0,0.5],[1,0.5]];portConstraint=eastwest;rotatable=0;whiteSpace=wrap;html=1;" vertex="1" parent="hWTCqJScmFLol3pXhUUd-36">
          <mxGeometry y="450" width="210" height="30" as="geometry" />
        </mxCell>
        <mxCell id="hWTCqJScmFLol3pXhUUd-52" value="nro_documento: int" style="text;strokeColor=none;fillColor=none;align=left;verticalAlign=middle;spacingLeft=4;spacingRight=4;overflow=hidden;points=[[0,0.5],[1,0.5]];portConstraint=eastwest;rotatable=0;whiteSpace=wrap;html=1;" vertex="1" parent="hWTCqJScmFLol3pXhUUd-36">
          <mxGeometry y="480" width="210" height="30" as="geometry" />
        </mxCell>
        <mxCell id="hWTCqJScmFLol3pXhUUd-53" value="telefono: varchar" style="text;strokeColor=none;fillColor=none;align=left;verticalAlign=middle;spacingLeft=4;spacingRight=4;overflow=hidden;points=[[0,0.5],[1,0.5]];portConstraint=eastwest;rotatable=0;whiteSpace=wrap;html=1;" vertex="1" parent="hWTCqJScmFLol3pXhUUd-36">
          <mxGeometry y="510" width="210" height="30" as="geometry" />
        </mxCell>
        <mxCell id="hWTCqJScmFLol3pXhUUd-54" value="fax: varchar" style="text;strokeColor=none;fillColor=none;align=left;verticalAlign=middle;spacingLeft=4;spacingRight=4;overflow=hidden;points=[[0,0.5],[1,0.5]];portConstraint=eastwest;rotatable=0;whiteSpace=wrap;html=1;" vertex="1" parent="hWTCqJScmFLol3pXhUUd-36">
          <mxGeometry y="540" width="210" height="30" as="geometry" />
        </mxCell>
        <mxCell id="hWTCqJScmFLol3pXhUUd-55" value="e_mail: varchar" style="text;strokeColor=none;fillColor=none;align=left;verticalAlign=middle;spacingLeft=4;spacingRight=4;overflow=hidden;points=[[0,0.5],[1,0.5]];portConstraint=eastwest;rotatable=0;whiteSpace=wrap;html=1;" vertex="1" parent="hWTCqJScmFLol3pXhUUd-36">
          <mxGeometry y="570" width="210" height="30" as="geometry" />
        </mxCell>
        <mxCell id="hWTCqJScmFLol3pXhUUd-56" value="cuit: varchar" style="text;strokeColor=none;fillColor=none;align=left;verticalAlign=middle;spacingLeft=4;spacingRight=4;overflow=hidden;points=[[0,0.5],[1,0.5]];portConstraint=eastwest;rotatable=0;whiteSpace=wrap;html=1;" vertex="1" parent="hWTCqJScmFLol3pXhUUd-36">
          <mxGeometry y="600" width="210" height="30" as="geometry" />
        </mxCell>
        <mxCell id="hWTCqJScmFLol3pXhUUd-57" value="cod_iva: int" style="text;strokeColor=none;fillColor=none;align=left;verticalAlign=middle;spacingLeft=4;spacingRight=4;overflow=hidden;points=[[0,0.5],[1,0.5]];portConstraint=eastwest;rotatable=0;whiteSpace=wrap;html=1;" vertex="1" parent="hWTCqJScmFLol3pXhUUd-36">
          <mxGeometry y="630" width="210" height="30" as="geometry" />
        </mxCell>
        <mxCell id="hWTCqJScmFLol3pXhUUd-58" value="credencial: varchar" style="text;strokeColor=none;fillColor=none;align=left;verticalAlign=middle;spacingLeft=4;spacingRight=4;overflow=hidden;points=[[0,0.5],[1,0.5]];portConstraint=eastwest;rotatable=0;whiteSpace=wrap;html=1;" vertex="1" parent="hWTCqJScmFLol3pXhUUd-36">
          <mxGeometry y="660" width="210" height="30" as="geometry" />
        </mxCell>
        <mxCell id="hWTCqJScmFLol3pXhUUd-60" value="baja: tinyint" style="text;strokeColor=none;fillColor=none;align=left;verticalAlign=middle;spacingLeft=4;spacingRight=4;overflow=hidden;points=[[0,0.5],[1,0.5]];portConstraint=eastwest;rotatable=0;whiteSpace=wrap;html=1;" vertex="1" parent="hWTCqJScmFLol3pXhUUd-36">
          <mxGeometry y="690" width="210" height="30" as="geometry" />
        </mxCell>
        <mxCell id="hWTCqJScmFLol3pXhUUd-61" value="causa_baja: varchar" style="text;strokeColor=none;fillColor=none;align=left;verticalAlign=middle;spacingLeft=4;spacingRight=4;overflow=hidden;points=[[0,0.5],[1,0.5]];portConstraint=eastwest;rotatable=0;whiteSpace=wrap;html=1;" vertex="1" parent="hWTCqJScmFLol3pXhUUd-36">
          <mxGeometry y="720" width="210" height="30" as="geometry" />
        </mxCell>
        <mxCell id="hWTCqJScmFLol3pXhUUd-62" value="fecha_baja: date" style="text;strokeColor=none;fillColor=none;align=left;verticalAlign=middle;spacingLeft=4;spacingRight=4;overflow=hidden;points=[[0,0.5],[1,0.5]];portConstraint=eastwest;rotatable=0;whiteSpace=wrap;html=1;" vertex="1" parent="hWTCqJScmFLol3pXhUUd-36">
          <mxGeometry y="750" width="210" height="30" as="geometry" />
        </mxCell>
        <mxCell id="hWTCqJScmFLol3pXhUUd-63" value="sir: tinyint" style="text;strokeColor=none;fillColor=none;align=left;verticalAlign=middle;spacingLeft=4;spacingRight=4;overflow=hidden;points=[[0,0.5],[1,0.5]];portConstraint=eastwest;rotatable=0;whiteSpace=wrap;html=1;" vertex="1" parent="hWTCqJScmFLol3pXhUUd-36">
          <mxGeometry y="780" width="210" height="30" as="geometry" />
        </mxCell>
        <mxCell id="hWTCqJScmFLol3pXhUUd-64" value="fecha_sir: date" style="text;strokeColor=none;fillColor=none;align=left;verticalAlign=middle;spacingLeft=4;spacingRight=4;overflow=hidden;points=[[0,0.5],[1,0.5]];portConstraint=eastwest;rotatable=0;whiteSpace=wrap;html=1;" vertex="1" parent="hWTCqJScmFLol3pXhUUd-36">
          <mxGeometry y="810" width="210" height="30" as="geometry" />
        </mxCell>
        <mxCell id="hWTCqJScmFLol3pXhUUd-65" value="nro_inscripcion_sir: int" style="text;strokeColor=none;fillColor=none;align=left;verticalAlign=middle;spacingLeft=4;spacingRight=4;overflow=hidden;points=[[0,0.5],[1,0.5]];portConstraint=eastwest;rotatable=0;whiteSpace=wrap;html=1;" vertex="1" parent="hWTCqJScmFLol3pXhUUd-36">
          <mxGeometry y="840" width="210" height="30" as="geometry" />
        </mxCell>
        <mxCell id="hWTCqJScmFLol3pXhUUd-66" value="obsevaciones: longtext" style="text;strokeColor=none;fillColor=none;align=left;verticalAlign=middle;spacingLeft=4;spacingRight=4;overflow=hidden;points=[[0,0.5],[1,0.5]];portConstraint=eastwest;rotatable=0;whiteSpace=wrap;html=1;" vertex="1" parent="hWTCqJScmFLol3pXhUUd-36">
          <mxGeometry y="870" width="210" height="30" as="geometry" />
        </mxCell>
        <mxCell id="hWTCqJScmFLol3pXhUUd-67" value="cod_causa_baja" style="text;strokeColor=none;fillColor=none;align=left;verticalAlign=middle;spacingLeft=4;spacingRight=4;overflow=hidden;points=[[0,0.5],[1,0.5]];portConstraint=eastwest;rotatable=0;whiteSpace=wrap;html=1;" vertex="1" parent="hWTCqJScmFLol3pXhUUd-36">
          <mxGeometry y="900" width="210" height="30" as="geometry" />
        </mxCell>
        <mxCell id="hWTCqJScmFLol3pXhUUd-68" value="enviar_a_id: int" style="text;strokeColor=none;fillColor=none;align=left;verticalAlign=middle;spacingLeft=4;spacingRight=4;overflow=hidden;points=[[0,0.5],[1,0.5]];portConstraint=eastwest;rotatable=0;whiteSpace=wrap;html=1;" vertex="1" parent="hWTCqJScmFLol3pXhUUd-36">
          <mxGeometry y="930" width="210" height="30" as="geometry" />
        </mxCell>
        <mxCell id="hWTCqJScmFLol3pXhUUd-69" value="e_mail2: varchar" style="text;strokeColor=none;fillColor=none;align=left;verticalAlign=middle;spacingLeft=4;spacingRight=4;overflow=hidden;points=[[0,0.5],[1,0.5]];portConstraint=eastwest;rotatable=0;whiteSpace=wrap;html=1;" vertex="1" parent="hWTCqJScmFLol3pXhUUd-36">
          <mxGeometry y="960" width="210" height="30" as="geometry" />
        </mxCell>
        <mxCell id="hWTCqJScmFLol3pXhUUd-70" value="es_legalizador: tinyint" style="text;strokeColor=none;fillColor=none;align=left;verticalAlign=middle;spacingLeft=4;spacingRight=4;overflow=hidden;points=[[0,0.5],[1,0.5]];portConstraint=eastwest;rotatable=0;whiteSpace=wrap;html=1;" vertex="1" parent="hWTCqJScmFLol3pXhUUd-36">
          <mxGeometry y="990" width="210" height="30" as="geometry" />
        </mxCell>
        <mxCell id="hWTCqJScmFLol3pXhUUd-71" value="" style="endArrow=none;html=1;rounded=0;exitX=1;exitY=0.5;exitDx=0;exitDy=0;entryX=0;entryY=0.5;entryDx=0;entryDy=0;" edge="1" parent="1" source="hWTCqJScmFLol3pXhUUd-37" target="hWTCqJScmFLol3pXhUUd-25">
          <mxGeometry width="50" height="50" relative="1" as="geometry">
            <mxPoint x="610" y="90" as="sourcePoint" />
            <mxPoint x="660" y="40" as="targetPoint" />
          </mxGeometry>
        </mxCell>
        <mxCell id="hWTCqJScmFLol3pXhUUd-72" value="pad_persona (pgsql)" style="swimlane;fontStyle=0;childLayout=stackLayout;horizontal=1;startSize=30;horizontalStack=0;resizeParent=1;resizeParentMax=0;resizeLast=0;collapsible=1;marginBottom=0;whiteSpace=wrap;html=1;" vertex="1" parent="1">
          <mxGeometry x="560" y="30" width="210" height="780" as="geometry" />
        </mxCell>
        <mxCell id="hWTCqJScmFLol3pXhUUd-73" value="id: bigserial" style="text;strokeColor=none;fillColor=none;align=left;verticalAlign=middle;spacingLeft=4;spacingRight=4;overflow=hidden;points=[[0,0.5],[1,0.5]];portConstraint=eastwest;rotatable=0;whiteSpace=wrap;html=1;" vertex="1" parent="hWTCqJScmFLol3pXhUUd-72">
          <mxGeometry y="30" width="210" height="30" as="geometry" />
        </mxCell>
        <mxCell id="hWTCqJScmFLol3pXhUUd-74" value="creationtimestamp: timestamp" style="text;strokeColor=none;fillColor=none;align=left;verticalAlign=middle;spacingLeft=4;spacingRight=4;overflow=hidden;points=[[0,0.5],[1,0.5]];portConstraint=eastwest;rotatable=0;whiteSpace=wrap;html=1;" vertex="1" parent="hWTCqJScmFLol3pXhUUd-72">
          <mxGeometry y="60" width="210" height="30" as="geometry" />
        </mxCell>
        <mxCell id="hWTCqJScmFLol3pXhUUd-75" value="creatinuser: varchar" style="text;strokeColor=none;fillColor=none;align=left;verticalAlign=middle;spacingLeft=4;spacingRight=4;overflow=hidden;points=[[0,0.5],[1,0.5]];portConstraint=eastwest;rotatable=0;whiteSpace=wrap;html=1;" vertex="1" parent="hWTCqJScmFLol3pXhUUd-72">
          <mxGeometry y="90" width="210" height="30" as="geometry" />
        </mxCell>
        <mxCell id="hWTCqJScmFLol3pXhUUd-76" value="deleted: bool" style="text;strokeColor=none;fillColor=none;align=left;verticalAlign=middle;spacingLeft=4;spacingRight=4;overflow=hidden;points=[[0,0.5],[1,0.5]];portConstraint=eastwest;rotatable=0;whiteSpace=wrap;html=1;" vertex="1" parent="hWTCqJScmFLol3pXhUUd-72">
          <mxGeometry y="120" width="210" height="30" as="geometry" />
        </mxCell>
        <mxCell id="hWTCqJScmFLol3pXhUUd-77" value="modificationtimestamp: timestamp" style="text;strokeColor=none;fillColor=none;align=left;verticalAlign=middle;spacingLeft=4;spacingRight=4;overflow=hidden;points=[[0,0.5],[1,0.5]];portConstraint=eastwest;rotatable=0;whiteSpace=wrap;html=1;" vertex="1" parent="hWTCqJScmFLol3pXhUUd-72">
          <mxGeometry y="150" width="210" height="30" as="geometry" />
        </mxCell>
        <mxCell id="hWTCqJScmFLol3pXhUUd-78" value="modificationuser: varchar" style="text;strokeColor=none;fillColor=none;align=left;verticalAlign=middle;spacingLeft=4;spacingRight=4;overflow=hidden;points=[[0,0.5],[1,0.5]];portConstraint=eastwest;rotatable=0;whiteSpace=wrap;html=1;" vertex="1" parent="hWTCqJScmFLol3pXhUUd-72">
          <mxGeometry y="180" width="210" height="30" as="geometry" />
        </mxCell>
        <mxCell id="hWTCqJScmFLol3pXhUUd-79" value="versionnumber: int8" style="text;strokeColor=none;fillColor=none;align=left;verticalAlign=middle;spacingLeft=4;spacingRight=4;overflow=hidden;points=[[0,0.5],[1,0.5]];portConstraint=eastwest;rotatable=0;whiteSpace=wrap;html=1;" vertex="1" parent="hWTCqJScmFLol3pXhUUd-72">
          <mxGeometry y="210" width="210" height="30" as="geometry" />
        </mxCell>
        <mxCell id="hWTCqJScmFLol3pXhUUd-80" value="apellido1: varchar" style="text;strokeColor=none;fillColor=none;align=left;verticalAlign=middle;spacingLeft=4;spacingRight=4;overflow=hidden;points=[[0,0.5],[1,0.5]];portConstraint=eastwest;rotatable=0;whiteSpace=wrap;html=1;" vertex="1" parent="hWTCqJScmFLol3pXhUUd-72">
          <mxGeometry y="240" width="210" height="30" as="geometry" />
        </mxCell>
        <mxCell id="hWTCqJScmFLol3pXhUUd-81" value="apellido2: varchar" style="text;strokeColor=none;fillColor=none;align=left;verticalAlign=middle;spacingLeft=4;spacingRight=4;overflow=hidden;points=[[0,0.5],[1,0.5]];portConstraint=eastwest;rotatable=0;whiteSpace=wrap;html=1;" vertex="1" parent="hWTCqJScmFLol3pXhUUd-72">
          <mxGeometry y="270" width="210" height="30" as="geometry" />
        </mxCell>
        <mxCell id="hWTCqJScmFLol3pXhUUd-82" value="cuit: int8" style="text;strokeColor=none;fillColor=none;align=left;verticalAlign=middle;spacingLeft=4;spacingRight=4;overflow=hidden;points=[[0,0.5],[1,0.5]];portConstraint=eastwest;rotatable=0;whiteSpace=wrap;html=1;" vertex="1" parent="hWTCqJScmFLol3pXhUUd-72">
          <mxGeometry y="300" width="210" height="30" as="geometry" />
        </mxCell>
        <mxCell id="hWTCqJScmFLol3pXhUUd-83" value="mailoficial: varchar" style="text;strokeColor=none;fillColor=none;align=left;verticalAlign=middle;spacingLeft=4;spacingRight=4;overflow=hidden;points=[[0,0.5],[1,0.5]];portConstraint=eastwest;rotatable=0;whiteSpace=wrap;html=1;" vertex="1" parent="hWTCqJScmFLol3pXhUUd-72">
          <mxGeometry y="330" width="210" height="30" as="geometry" />
        </mxCell>
        <mxCell id="hWTCqJScmFLol3pXhUUd-84" value="nombre1: varchar" style="text;strokeColor=none;fillColor=none;align=left;verticalAlign=middle;spacingLeft=4;spacingRight=4;overflow=hidden;points=[[0,0.5],[1,0.5]];portConstraint=eastwest;rotatable=0;whiteSpace=wrap;html=1;" vertex="1" parent="hWTCqJScmFLol3pXhUUd-72">
          <mxGeometry y="360" width="210" height="30" as="geometry" />
        </mxCell>
        <mxCell id="hWTCqJScmFLol3pXhUUd-85" value="nombre2: varchar" style="text;strokeColor=none;fillColor=none;align=left;verticalAlign=middle;spacingLeft=4;spacingRight=4;overflow=hidden;points=[[0,0.5],[1,0.5]];portConstraint=eastwest;rotatable=0;whiteSpace=wrap;html=1;" vertex="1" parent="hWTCqJScmFLol3pXhUUd-72">
          <mxGeometry y="390" width="210" height="30" as="geometry" />
        </mxCell>
        <mxCell id="hWTCqJScmFLol3pXhUUd-86" value="nombre3: varchar" style="text;strokeColor=none;fillColor=none;align=left;verticalAlign=middle;spacingLeft=4;spacingRight=4;overflow=hidden;points=[[0,0.5],[1,0.5]];portConstraint=eastwest;rotatable=0;whiteSpace=wrap;html=1;" vertex="1" parent="hWTCqJScmFLol3pXhUUd-72">
          <mxGeometry y="420" width="210" height="30" as="geometry" />
        </mxCell>
        <mxCell id="hWTCqJScmFLol3pXhUUd-87" value="razonsocial: varchar" style="text;strokeColor=none;fillColor=none;align=left;verticalAlign=middle;spacingLeft=4;spacingRight=4;overflow=hidden;points=[[0,0.5],[1,0.5]];portConstraint=eastwest;rotatable=0;whiteSpace=wrap;html=1;" vertex="1" parent="hWTCqJScmFLol3pXhUUd-72">
          <mxGeometry y="450" width="210" height="30" as="geometry" />
        </mxCell>
        <mxCell id="hWTCqJScmFLol3pXhUUd-88" value="sexo: varchar" style="text;strokeColor=none;fillColor=none;align=left;verticalAlign=middle;spacingLeft=4;spacingRight=4;overflow=hidden;points=[[0,0.5],[1,0.5]];portConstraint=eastwest;rotatable=0;whiteSpace=wrap;html=1;" vertex="1" parent="hWTCqJScmFLol3pXhUUd-72">
          <mxGeometry y="480" width="210" height="30" as="geometry" />
        </mxCell>
        <mxCell id="hWTCqJScmFLol3pXhUUd-89" value="apellidonombreconyuge: varchar" style="text;strokeColor=none;fillColor=none;align=left;verticalAlign=middle;spacingLeft=4;spacingRight=4;overflow=hidden;points=[[0,0.5],[1,0.5]];portConstraint=eastwest;rotatable=0;whiteSpace=wrap;html=1;" vertex="1" parent="hWTCqJScmFLol3pXhUUd-72">
          <mxGeometry y="510" width="210" height="30" as="geometry" />
        </mxCell>
        <mxCell id="hWTCqJScmFLol3pXhUUd-90" value="localidadnacimiento: varchar" style="text;strokeColor=none;fillColor=none;align=left;verticalAlign=middle;spacingLeft=4;spacingRight=4;overflow=hidden;points=[[0,0.5],[1,0.5]];portConstraint=eastwest;rotatable=0;whiteSpace=wrap;html=1;" vertex="1" parent="hWTCqJScmFLol3pXhUUd-72">
          <mxGeometry y="540" width="210" height="30" as="geometry" />
        </mxCell>
        <mxCell id="hWTCqJScmFLol3pXhUUd-91" value="idpaisnacimiento: int8" style="text;strokeColor=none;fillColor=none;align=left;verticalAlign=middle;spacingLeft=4;spacingRight=4;overflow=hidden;points=[[0,0.5],[1,0.5]];portConstraint=eastwest;rotatable=0;whiteSpace=wrap;html=1;" vertex="1" parent="hWTCqJScmFLol3pXhUUd-72">
          <mxGeometry y="570" width="210" height="30" as="geometry" />
        </mxCell>
        <mxCell id="hWTCqJScmFLol3pXhUUd-92" value="fechanacimiento: date" style="text;strokeColor=none;fillColor=none;align=left;verticalAlign=middle;spacingLeft=4;spacingRight=4;overflow=hidden;points=[[0,0.5],[1,0.5]];portConstraint=eastwest;rotatable=0;whiteSpace=wrap;html=1;" vertex="1" parent="hWTCqJScmFLol3pXhUUd-72">
          <mxGeometry y="600" width="210" height="30" as="geometry" />
        </mxCell>
        <mxCell id="hWTCqJScmFLol3pXhUUd-94" value="idtipodocumento: int8" style="text;strokeColor=none;fillColor=none;align=left;verticalAlign=middle;spacingLeft=4;spacingRight=4;overflow=hidden;points=[[0,0.5],[1,0.5]];portConstraint=eastwest;rotatable=0;whiteSpace=wrap;html=1;" vertex="1" parent="hWTCqJScmFLol3pXhUUd-72">
          <mxGeometry y="630" width="210" height="30" as="geometry" />
        </mxCell>
        <mxCell id="hWTCqJScmFLol3pXhUUd-95" value="numerodocumento: int8" style="text;strokeColor=none;fillColor=none;align=left;verticalAlign=middle;spacingLeft=4;spacingRight=4;overflow=hidden;points=[[0,0.5],[1,0.5]];portConstraint=eastwest;rotatable=0;whiteSpace=wrap;html=1;" vertex="1" parent="hWTCqJScmFLol3pXhUUd-72">
          <mxGeometry y="660" width="210" height="30" as="geometry" />
        </mxCell>
        <mxCell id="hWTCqJScmFLol3pXhUUd-96" value="idestadocivil: int8" style="text;strokeColor=none;fillColor=none;align=left;verticalAlign=middle;spacingLeft=4;spacingRight=4;overflow=hidden;points=[[0,0.5],[1,0.5]];portConstraint=eastwest;rotatable=0;whiteSpace=wrap;html=1;" vertex="1" parent="hWTCqJScmFLol3pXhUUd-72">
          <mxGeometry y="690" width="210" height="30" as="geometry" />
        </mxCell>
        <mxCell id="hWTCqJScmFLol3pXhUUd-97" value="ingresosbrutos: varchar" style="text;strokeColor=none;fillColor=none;align=left;verticalAlign=middle;spacingLeft=4;spacingRight=4;overflow=hidden;points=[[0,0.5],[1,0.5]];portConstraint=eastwest;rotatable=0;whiteSpace=wrap;html=1;" vertex="1" parent="hWTCqJScmFLol3pXhUUd-72">
          <mxGeometry y="720" width="210" height="30" as="geometry" />
        </mxCell>
        <mxCell id="hWTCqJScmFLol3pXhUUd-98" value="idcondicioniva: inot8" style="text;strokeColor=none;fillColor=none;align=left;verticalAlign=middle;spacingLeft=4;spacingRight=4;overflow=hidden;points=[[0,0.5],[1,0.5]];portConstraint=eastwest;rotatable=0;whiteSpace=wrap;html=1;" vertex="1" parent="hWTCqJScmFLol3pXhUUd-72">
          <mxGeometry y="750" width="210" height="30" as="geometry" />
        </mxCell>
        <mxCell id="hWTCqJScmFLol3pXhUUd-99" value="" style="endArrow=none;html=1;rounded=0;exitX=1;exitY=0.5;exitDx=0;exitDy=0;entryX=0;entryY=0.5;entryDx=0;entryDy=0;" edge="1" parent="1" source="hWTCqJScmFLol3pXhUUd-38" target="hWTCqJScmFLol3pXhUUd-80">
          <mxGeometry width="50" height="50" relative="1" as="geometry">
            <mxPoint x="600" y="-100" as="sourcePoint" />
            <mxPoint x="650" y="-150" as="targetPoint" />
          </mxGeometry>
        </mxCell>
        <mxCell id="hWTCqJScmFLol3pXhUUd-101" value="" style="endArrow=none;html=1;rounded=0;exitX=1;exitY=0.5;exitDx=0;exitDy=0;entryX=0;entryY=0.5;entryDx=0;entryDy=0;" edge="1" parent="1" source="hWTCqJScmFLol3pXhUUd-39" target="hWTCqJScmFLol3pXhUUd-81">
          <mxGeometry width="50" height="50" relative="1" as="geometry">
            <mxPoint x="470" y="-145" as="sourcePoint" />
            <mxPoint x="580" y="305" as="targetPoint" />
          </mxGeometry>
        </mxCell>
        <mxCell id="hWTCqJScmFLol3pXhUUd-102" value="" style="endArrow=none;html=1;rounded=0;exitX=1;exitY=0.5;exitDx=0;exitDy=0;entryX=0;entryY=0.5;entryDx=0;entryDy=0;" edge="1" parent="1" source="hWTCqJScmFLol3pXhUUd-40" target="hWTCqJScmFLol3pXhUUd-84">
          <mxGeometry width="50" height="50" relative="1" as="geometry">
            <mxPoint x="460" y="-4" as="sourcePoint" />
            <mxPoint x="570" y="446" as="targetPoint" />
          </mxGeometry>
        </mxCell>
        <mxCell id="hWTCqJScmFLol3pXhUUd-103" value="" style="endArrow=none;html=1;rounded=0;exitX=1;exitY=0.5;exitDx=0;exitDy=0;entryX=0;entryY=0.5;entryDx=0;entryDy=0;" edge="1" parent="1" source="hWTCqJScmFLol3pXhUUd-41" target="hWTCqJScmFLol3pXhUUd-85">
          <mxGeometry width="50" height="50" relative="1" as="geometry">
            <mxPoint x="460" y="40" as="sourcePoint" />
            <mxPoint x="570" y="550" as="targetPoint" />
          </mxGeometry>
        </mxCell>
        <mxCell id="hWTCqJScmFLol3pXhUUd-104" value="" style="endArrow=none;html=1;rounded=0;exitX=1;exitY=0.5;exitDx=0;exitDy=0;entryX=0;entryY=0.5;entryDx=0;entryDy=0;" edge="1" parent="1" source="hWTCqJScmFLol3pXhUUd-42" target="hWTCqJScmFLol3pXhUUd-86">
          <mxGeometry width="50" height="50" relative="1" as="geometry">
            <mxPoint x="460" y="-65" as="sourcePoint" />
            <mxPoint x="570" y="445" as="targetPoint" />
          </mxGeometry>
        </mxCell>
        <mxCell id="hWTCqJScmFLol3pXhUUd-105" value="" style="endArrow=none;html=1;rounded=0;exitX=1;exitY=0.5;exitDx=0;exitDy=0;entryX=0;entryY=0.5;entryDx=0;entryDy=0;" edge="1" parent="1" source="hWTCqJScmFLol3pXhUUd-50" target="hWTCqJScmFLol3pXhUUd-92">
          <mxGeometry width="50" height="50" relative="1" as="geometry">
            <mxPoint x="600" y="320" as="sourcePoint" />
            <mxPoint x="430" y="400" as="targetPoint" />
          </mxGeometry>
        </mxCell>
        <mxCell id="hWTCqJScmFLol3pXhUUd-108" value="" style="endArrow=none;html=1;rounded=0;exitX=1;exitY=0.5;exitDx=0;exitDy=0;entryX=0;entryY=0.5;entryDx=0;entryDy=0;" edge="1" parent="1" source="hWTCqJScmFLol3pXhUUd-44" target="hWTCqJScmFLol3pXhUUd-87">
          <mxGeometry width="50" height="50" relative="1" as="geometry">
            <mxPoint x="600" y="130" as="sourcePoint" />
            <mxPoint x="650" y="80" as="targetPoint" />
          </mxGeometry>
        </mxCell>
        <mxCell id="hWTCqJScmFLol3pXhUUd-109" value="" style="endArrow=none;html=1;rounded=0;exitX=0;exitY=0.5;exitDx=0;exitDy=0;entryX=1;entryY=0.5;entryDx=0;entryDy=0;" edge="1" parent="1" source="hWTCqJScmFLol3pXhUUd-88" target="hWTCqJScmFLol3pXhUUd-43">
          <mxGeometry width="50" height="50" relative="1" as="geometry">
            <mxPoint x="600" y="320" as="sourcePoint" />
            <mxPoint x="650" y="270" as="targetPoint" />
          </mxGeometry>
        </mxCell>
        <mxCell id="hWTCqJScmFLol3pXhUUd-112" value="" style="endArrow=none;html=1;rounded=0;exitX=1;exitY=0.5;exitDx=0;exitDy=0;entryX=0;entryY=0.5;entryDx=0;entryDy=0;" edge="1" parent="1" source="hWTCqJScmFLol3pXhUUd-44" target="hWTCqJScmFLol3pXhUUd-89">
          <mxGeometry width="50" height="50" relative="1" as="geometry">
            <mxPoint x="470" y="70" as="sourcePoint" />
            <mxPoint x="410" y="310" as="targetPoint" />
          </mxGeometry>
        </mxCell>
        <mxCell id="hWTCqJScmFLol3pXhUUd-113" value="" style="endArrow=none;html=1;rounded=0;exitX=1;exitY=0.5;exitDx=0;exitDy=0;entryX=0;entryY=0.5;entryDx=0;entryDy=0;" edge="1" parent="1" source="hWTCqJScmFLol3pXhUUd-49" target="hWTCqJScmFLol3pXhUUd-90">
          <mxGeometry width="50" height="50" relative="1" as="geometry">
            <mxPoint x="340" y="130" as="sourcePoint" />
            <mxPoint x="520" y="310" as="targetPoint" />
          </mxGeometry>
        </mxCell>
        <mxCell id="hWTCqJScmFLol3pXhUUd-115" value="" style="endArrow=none;html=1;rounded=0;exitX=1;exitY=0.5;exitDx=0;exitDy=0;entryX=0;entryY=0.5;entryDx=0;entryDy=0;" edge="1" parent="1" source="hWTCqJScmFLol3pXhUUd-45" target="hWTCqJScmFLol3pXhUUd-28">
          <mxGeometry width="50" height="50" relative="1" as="geometry">
            <mxPoint x="470" y="40" as="sourcePoint" />
            <mxPoint x="520" y="-10" as="targetPoint" />
          </mxGeometry>
        </mxCell>
        <mxCell id="hWTCqJScmFLol3pXhUUd-116" value="" style="endArrow=none;html=1;rounded=0;exitX=1;exitY=0.5;exitDx=0;exitDy=0;entryX=0;entryY=0.5;entryDx=0;entryDy=0;" edge="1" parent="1" source="hWTCqJScmFLol3pXhUUd-51" target="hWTCqJScmFLol3pXhUUd-94">
          <mxGeometry width="50" height="50" relative="1" as="geometry">
            <mxPoint x="470" y="120" as="sourcePoint" />
            <mxPoint x="400" y="350" as="targetPoint" />
          </mxGeometry>
        </mxCell>
        <mxCell id="hWTCqJScmFLol3pXhUUd-117" value="" style="endArrow=none;html=1;rounded=0;exitX=1;exitY=0.5;exitDx=0;exitDy=0;entryX=0;entryY=0.5;entryDx=0;entryDy=0;" edge="1" parent="1" source="hWTCqJScmFLol3pXhUUd-52" target="hWTCqJScmFLol3pXhUUd-95">
          <mxGeometry width="50" height="50" relative="1" as="geometry">
            <mxPoint x="310" y="15" as="sourcePoint" />
            <mxPoint x="570" y="685" as="targetPoint" />
          </mxGeometry>
        </mxCell>
        <mxCell id="hWTCqJScmFLol3pXhUUd-118" value="" style="endArrow=none;html=1;rounded=0;exitX=1;exitY=0.5;exitDx=0;exitDy=0;entryX=0;entryY=0.5;entryDx=0;entryDy=0;" edge="1" parent="1" source="hWTCqJScmFLol3pXhUUd-46" target="hWTCqJScmFLol3pXhUUd-29">
          <mxGeometry width="50" height="50" relative="1" as="geometry">
            <mxPoint x="310" y="-165" as="sourcePoint" />
            <mxPoint x="570" y="-219" as="targetPoint" />
          </mxGeometry>
        </mxCell>
        <mxCell id="hWTCqJScmFLol3pXhUUd-119" value="" style="endArrow=none;html=1;rounded=0;exitX=1;exitY=0.5;exitDx=0;exitDy=0;entryX=0;entryY=0.5;entryDx=0;entryDy=0;" edge="1" parent="1" source="hWTCqJScmFLol3pXhUUd-48" target="hWTCqJScmFLol3pXhUUd-31">
          <mxGeometry width="50" height="50" relative="1" as="geometry">
            <mxPoint x="310" y="-135" as="sourcePoint" />
            <mxPoint x="570" y="-189" as="targetPoint" />
          </mxGeometry>
        </mxCell>
        <mxCell id="hWTCqJScmFLol3pXhUUd-120" value="" style="endArrow=none;html=1;rounded=0;exitX=1;exitY=0.5;exitDx=0;exitDy=0;entryX=0;entryY=0.5;entryDx=0;entryDy=0;" edge="1" parent="1" source="hWTCqJScmFLol3pXhUUd-66" target="hWTCqJScmFLol3pXhUUd-34">
          <mxGeometry width="50" height="50" relative="1" as="geometry">
            <mxPoint x="470" y="430" as="sourcePoint" />
            <mxPoint x="540" y="60" as="targetPoint" />
          </mxGeometry>
        </mxCell>
        <mxCell id="hWTCqJScmFLol3pXhUUd-121" value="" style="endArrow=none;html=1;rounded=0;exitX=1;exitY=0.5;exitDx=0;exitDy=0;entryX=0;entryY=0.5;entryDx=0;entryDy=0;" edge="1" parent="1" source="hWTCqJScmFLol3pXhUUd-66" target="hWTCqJScmFLol3pXhUUd-35">
          <mxGeometry width="50" height="50" relative="1" as="geometry">
            <mxPoint x="310" y="435" as="sourcePoint" />
            <mxPoint x="570" y="-39" as="targetPoint" />
          </mxGeometry>
        </mxCell>
        <mxCell id="hWTCqJScmFLol3pXhUUd-122" value="" style="endArrow=none;html=1;rounded=0;entryX=0;entryY=0.5;entryDx=0;entryDy=0;exitX=1;exitY=0.5;exitDx=0;exitDy=0;" edge="1" parent="1" source="hWTCqJScmFLol3pXhUUd-47" target="hWTCqJScmFLol3pXhUUd-30">
          <mxGeometry width="50" height="50" relative="1" as="geometry">
            <mxPoint x="470" y="-190" as="sourcePoint" />
            <mxPoint x="520" y="-240" as="targetPoint" />
          </mxGeometry>
        </mxCell>
        <mxCell id="hWTCqJScmFLol3pXhUUd-124" value="" style="endArrow=none;html=1;rounded=0;entryX=1;entryY=0.5;entryDx=0;entryDy=0;exitX=0;exitY=0.5;exitDx=0;exitDy=0;" edge="1" parent="1" source="hWTCqJScmFLol3pXhUUd-83" target="hWTCqJScmFLol3pXhUUd-55">
          <mxGeometry width="50" height="50" relative="1" as="geometry">
            <mxPoint x="410" y="410" as="sourcePoint" />
            <mxPoint x="520" y="80" as="targetPoint" />
          </mxGeometry>
        </mxCell>
        <mxCell id="hWTCqJScmFLol3pXhUUd-125" value="" style="endArrow=none;html=1;rounded=0;entryX=1;entryY=0.5;entryDx=0;entryDy=0;exitX=0;exitY=0.5;exitDx=0;exitDy=0;" edge="1" parent="1" source="hWTCqJScmFLol3pXhUUd-82" target="hWTCqJScmFLol3pXhUUd-56">
          <mxGeometry width="50" height="50" relative="1" as="geometry">
            <mxPoint x="570" y="385" as="sourcePoint" />
            <mxPoint x="310" y="135" as="targetPoint" />
          </mxGeometry>
        </mxCell>
        <mxCell id="hWTCqJScmFLol3pXhUUd-126" value="" style="endArrow=none;html=1;rounded=0;exitX=1;exitY=0.5;exitDx=0;exitDy=0;entryX=0;entryY=0.5;entryDx=0;entryDy=0;" edge="1" parent="1" source="hWTCqJScmFLol3pXhUUd-57" target="hWTCqJScmFLol3pXhUUd-98">
          <mxGeometry width="50" height="50" relative="1" as="geometry">
            <mxPoint x="470" y="210" as="sourcePoint" />
            <mxPoint x="490" y="760" as="targetPoint" />
          </mxGeometry>
        </mxCell>
        <mxCell id="hWTCqJScmFLol3pXhUUd-127" value="" style="endArrow=none;html=1;rounded=0;exitX=1;exitY=0.5;exitDx=0;exitDy=0;entryX=0;entryY=0.5;entryDx=0;entryDy=0;" edge="1" parent="1" source="hWTCqJScmFLol3pXhUUd-58" target="hWTCqJScmFLol3pXhUUd-26">
          <mxGeometry width="50" height="50" relative="1" as="geometry">
            <mxPoint x="310" y="195" as="sourcePoint" />
            <mxPoint x="570" y="805" as="targetPoint" />
          </mxGeometry>
        </mxCell>
      </root>
    </mxGraphModel>
  </diagram>
</mxfile>
